<?xml version="1.0" encoding="utf-8"?>
<!-- Generator: Adobe Illustrator 17.0.0, SVG Export Plug-In . SVG Version: 6.00 Build 0)  -->
<!DOCTYPE svg PUBLIC "-//W3C//DTD SVG 1.1//EN" "http://www.w3.org/Graphics/SVG/1.1/DTD/svg11.dtd">
<svg version="1.1" id="Capa_1" xmlns="http://www.w3.org/2000/svg" xmlns:xlink="http://www.w3.org/1999/xlink" x="0px" y="0px"
	 width="2272px" height="1872px" viewBox="0 0 2272 1872" enable-background="new 0 0 2272 1872" xml:space="preserve">
<g>
	<defs>
		<rect id="SVGID_1_" x="0" y="0" width="2272" height="1872.001"/>
	</defs>
	<clipPath id="SVGID_2_">
		<use xlink:href="#SVGID_1_"  overflow="visible"/>
	</clipPath>
	<rect y="0" clip-path="url(#SVGID_2_)" fill="#1A3A60" width="2272" height="1872"/>
	<g clip-path="url(#SVGID_2_)">
		<rect x="0" y="0" fill="#183654" width="378.667" height="1872"/>
		<rect x="378.667" y="0" fill="#153147" width="378.667" height="1872"/>
		<rect x="757.333" y="0" fill="#122A3A" width="378.667" height="1872"/>
		<rect x="1136" y="0" fill="#0F222D" width="378.667" height="1872"/>
		<rect x="1514.667" y="0" fill="#0C1B23" width="378.667" height="1872"/>
		<rect x="1893.333" y="0" fill="#091419" width="378.667" height="1872"/>
	</g>
	<g opacity="0.3" clip-path="url(#SVGID_2_)">
		<rect x="0" y="-0.001" fill="#183654" width="2272" height="312"/>
		<rect x="0" y="312" fill="#153147" width="2272" height="312"/>
		<rect x="0" y="624" fill="#122A3A" width="2272" height="312"/>
		<rect x="0" y="936" fill="#0F222D" width="2272" height="312"/>
		<rect x="0" y="1248" fill="#0C1B23" width="2272" height="312"/>
		<rect x="0" y="1560" fill="#091419" width="2272" height="312"/>
	</g>
	<g clip-path="url(#SVGID_2_)">
		<g>
			<path fill="#00DC6C" d="M3369.018-1014.598L1760.018,256.921L727.909,1072.55l-85.464,67.537L102.902,600.544L849.26-126.757
				L3369.018-1014.598z M661.547,812.89l946.646-748.091l455.217-359.737l-206.919,72.909L981.518,86.269L451.454,602.798
				L661.547,812.89z"/>
		</g>
		<g>
			<path fill="#00D66C" d="M2935.876-555.535l-1285.44,947.995l-984.892,726.347l-83.719,61.742L53.157,594.309l727.161-726.729
				l917.079-362.241l306.455-24.52L2935.876-555.535z M612.995,872.291l901.172-664.605l492.447-363.172l191.9-141.524
				l-181.031,7.061l-141.181,11.298l-126.435,10.115L908.941,63.625l-539.22,538.9L612.995,872.291z"/>
		</g>
		<g>
			<path fill="#00D06C" d="M2676.059-243.439l-666.504,452.827l-468.839,318.53L522.309,1219.835L1.824,589.176l709.876-727.443
				l19.032-8.37l857.594-377.141l40.958-18.012l146.103,57.815l97.994,38.77l282.063,70.901l288.853,72.608L2676.059-243.439z
				 M563.341,932.868l856.94-582.215L1889.12,32.123l271.171-184.235l-352.733-88.664l-173.92-68.814L836.035,41.169
				l-546.46,559.983L563.341,932.868z"/>
		</g>
		<g>
			<path fill="#00CA6C" d="M2470.722,23.558l-594.654,365.811l-445.23,273.888l-967.066,594.912L-50.687,584.825l58.57-61.528
				L631.03-131.314l12.378-13.002l16.141-7.858l912.803-444.382l114.129,164.152l51.504,74.063L2470.722,23.558z M512.707,994.397
				l813.848-500.657l445.231-273.888l295.805-181.969l-465.037-242.375l-96.323-138.518L762.805,18.914L210.606,598.995
				l152.567,199.686L512.707,994.397z"/>
		</g>
		<g>
			<path fill="#00C46C" d="M2287.779,272.638l-123.756,67.29l-421.622,229.249l-421.623,229.246L477.54,1256.926l-71.425,38.836
				L149.163,935.813l-253.257-354.771L575.44-150.585l13.48-7.231l814.776-437.02l111.436-59.771l48.875,271.47l20.21,112.21
				l592.088,457.441L2287.779,272.638z M461.191,1056.667l771.816-419.668l421.624-229.246l297.865-161.958l-536.577-414.553
				l-36.81-204.384L689.25-3.124L132.533,596.271l166.177,232.786L461.191,1056.667z"/>
		</g>
		<g>
			<path fill="#00BE6C" d="M2115.497,513.596l-506.951,235.134l-398.015,184.604L349.27,1332.817l-40.112-59.69l-467.354-695.453
				l44.268-48.839l613.104-676.41l8.621-9.511l941.16-553.949l-22.486,358.195l-10.167,162.082l614.595,619.129L2115.497,513.596z
				 M408.866,1119.474l730.782-338.962l398.015-184.605l289.075-134.079L1243.434-125.78l17.511-279.12L615.372-24.929
				L55.157,593.132L408.866,1119.474z"/>
		</g>
		<g>
			<path fill="#00B86C" d="M1948.901,750.572l-474.388,177.342l-374.407,139.963l-748.804,279.941l-58.113,21.725l-33.317-52.336
				L39.002,970.242L-212.85,574.609l38.229-43.21l615.093-695.233l933.692-601.006l-87.9,430.777l-44.297,217.119L1948.901,750.572z
				 M355.775,1182.611l690.693-258.216l374.408-139.963l274.421-102.588l-263.786-323.706L1077.369-76.446l74.028-362.832
				L541.174-46.485L-21.668,589.689l189.889,298.295L355.775,1182.611z"/>
		</g>
		<g>
			<path fill="#00B26C" d="M1785.657,985.562l-94.497,25.678l-350.797,95.324l-350.799,95.321l-701.586,190.659l-50.119,13.62
				l-505.807-834.398l32.77-37.94l608.64-704.667l6.987-4.905l750.549-526.84l161.963-113.688L1146.14-321.037L1065.006-47.35
				l322.813,462.69L1785.657,985.562z M301.935,1245.853l651.469-177.04l350.8-95.321l256.299-69.646l-285.776-409.603
				l-360.8-517.136L1048.26-476.03L466.661-67.782l-564.71,653.807L102.41,916.71L301.935,1245.853z"/>
		</g>
		<g>
			<path fill="#00AC6C" d="M1624.581,1219.668l-418.324,64.8l-327.191,50.678l-695.774,107.793l-506.701-873.854L306.76-178.119
				l900.281-687.465l-200.537,554.539L886.966,19.52l336.929,548.205L1624.581,1219.668z M247.33,1308.94l612.965-94.964
				l327.193-50.679l236.052-36.565L767.035,58.554l-15.469-25.168l198.272-548.29L391.841-88.81l-565.909,671.009L247.33,1308.94z"
				/>
		</g>
		<g>
			<path fill="#00A66C" d="M1465.032,1453.583l-392.503,7.81l-303.583,6.036l-639.412,12.74l-15.697-28.192L-379.17,566.519
				l619.529-752.194l877.091-727.122L867.32-302.793L708.48,84.585l350.545,634.319L1465.032,1453.583z M191.917,1371.572
				l574.893-11.455l303.584-6.036l214.656-4.271L965.082,770.82L589.651,91.469l265.437-647.344L316.719-109.558l-566.505,687.815
				L191.917,1371.572z"/>
		</g>
		<g>
			<path fill="#00A06C" d="M1306.63,1687.767l-366.867-50.581l-279.975-38.606l-583.137-80.381l-511.836-954.166l19.104-23.748
				l590.328-733.803l2.768-2.487l686.321-616.659l161.383-145.003L936.111-759.63l-207.62,464.016L529.819,148.413l363.714,720.748
				L1306.63,1687.767z M135.627,1433.406l536.734,73.985l279.976,38.606l193.077,26.62L427.91,150.789L763.478-599.19
				l-522.17,469.169l-566.559,704.257l228.771,426.475L135.627,1433.406z"/>
		</g>
		<g>
			<path fill="#009A6C" d="M1149.095,1922.454l-340.31-110.499l-256.367-83.249L24.722,1557.38l-7.247-13.982l-497.512-959.853
				l-11.376-21.946l15.274-19.436L108.42-201.654l1.837-1.786l818.7-796.151l-339.019,710.45L351.106,211.363L1149.095,1922.454z
				 M78.386,1494.088l497.74,161.601l256.368,83.249l172.417,55.984L266.223,210.987L674.902-645.45L165.615-150.191
				l-566.118,720.354L78.386,1494.088z"/>
		</g>
		<g>
			<path fill="#00946C" d="M992.106,2157.494l-311.682-171.248l-232.759-127.89l-473.881-260.35l-4.291-8.545L-547.822,559.195
				L42.86-210.086l1.119-1.177l785.819-826.161L451.592-283.151L172.394,273.671L561.415,1167.7L992.106,2157.494z M20.152,1553.324
				l457.122,251.142l232.759,127.89l153.828,84.518l-358.828-824.642l-394.76-907.218l-5.739-13.189l485.184-967.629L89.652-170.063
				L-475.571,566.06L20.152,1553.324z"/>
		</g>
		<g>
			<path fill="#008E6C" d="M835.141,2391.969l-280.025-230.992l-209.151-172.532l-422.152-348.217L-604.391,556.804l581.95-775.62
				l748.655-850.207l-88.14,169.001L313.409-277.507L-6.294,335.498l401.29,980.754l405.351,990.679L835.141,2391.969z
				 M-39.048,1610.965l414.416,341.836l209.151,172.532l138.269,114.058L352.232,1333.75L-57.18,333.147l4.958-9.508L272.44-298.874
				l236.523-453.513L13.432-189.638l-563.913,751.581L-39.048,1610.965z"/>
		</g>
		<g>
			<path fill="#00886C" d="M677.129,2623.206l-244.478-286.153L247.109,2119.88l-372.401-435.87l-0.88-1.855L-661.099,554.414
				L-87.5-227.844l0.252-0.309l600.685-736.418l25.595,17.104L175.353-272.119l-360.299,669.075l413.369,1067.497L677.129,2623.206z
				 M-99.113,1667.046l369.733,432.747l185.542,217.174l126.6,148.18L199.586,1475.62L-216.356,401.48l-2.573-6.643l3.378-6.272
				l363.677-675.347l286.847-532.672L-63.033-208.916l-562.221,766.742L-99.113,1667.046z"/>
		</g>
		<g>
			<path fill="#00826C" d="M515.095,2842.783L150.41,2253.163l-324.099-523.992L-717.926,552.013l2.654-3.703l562.946-785.479
				l0.06-0.079l579.276-766.358l13.083,8.501L-363.562,458.124L61.733,1612.368l426.532,1157.601L515.095,2842.783z
				 M-159.887,1721.75l323.6,523.186l161.934,261.816l121.111,195.811L47.056,1617.775L-380.713,456.817l1.732-3.131l402.692-728.18
				l349.513-632.015L-139.73-227.894l-560.175,781.613l269.152,582.162L-159.887,1721.75z"/>
		</g>
		<g>
			<path fill="#007C6C" d="M332.077,3001.109l-0.334,0.134l-553.281-1225.778L-774.819,549.687l-0.042-0.094l0.059-0.084
				l557.867-796.297l557.867-796.297l0.304,0.192L-542.141,519.062l437.096,1240.985L332.077,3001.109z M-774.449,549.632
				l553.24,1225.685L330.336,2997.25l-435.721-1237.083L-542.508,519.104l-0.027-0.077l0.04-0.072l441.708-781.013l439.871-777.765
				L-774.449,549.632z"/>
		</g>
	</g>
</g>
</svg>
