<?xml version="1.0" encoding="utf-8"?>
<!-- Generator: Adobe Illustrator 22.0.1, SVG Export Plug-In . SVG Version: 6.00 Build 0)  -->
<svg version="1.1" xmlns="http://www.w3.org/2000/svg" xmlns:xlink="http://www.w3.org/1999/xlink" x="0px" y="0px"
	 viewBox="0 0 2272 1872" style="enable-background:new 0 0 2272 1872;" xml:space="preserve">
<style type="text/css">
	.st0{fill:#AEDCFF;}
	.st1{fill:#92C0DD;}
	.st2{fill:#8E6D61;}
	.st3{fill:#AA7F72;}
	.st4{opacity:0.32;fill:#77554A;}
	.st5{fill:#395377;}
	.st6{fill:#2F4663;}
	.st7{fill:#DBDBDB;}
	.st8{fill:#BCBBBB;}
	.st9{fill:#999999;}
	.st10{fill:#683C11;}
	.st11{fill:#BF4734;}
	.st12{fill:#7C231F;}
	.st13{fill:#CA8600;}
	.st14{fill:#933127;}
	.st15{fill:#FFFFFF;}
	.st16{fill:#333333;}
	.st17{fill:#232323;}
	.st18{fill:#1E1E1E;}
	.st19{fill:#494848;}
	.st20{fill:#303030;}
	.st21{fill:#444444;}
	.st22{fill:#A0382D;}
	.st23{fill:#DCDACC;}
	.st24{fill:#BFBEB2;}
	.st25{fill:#A8A38E;}
	.st26{fill:#C1BDA7;}
</style>
<g id="vv">
	<g id="Layer_1_1_">
	</g>
	<g id="Layer_2">
	</g>
</g>
<g id="Layer_2_1_">
	<rect x="0" class="st0" width="2272" height="1872"/>
	<g>
		<rect x="57.9" class="st1" width="115.9" height="1872"/>
		<rect x="305.7" class="st1" width="115.9" height="1872"/>
		<rect x="553.4" class="st1" width="115.9" height="1872"/>
		<rect x="801.2" class="st1" width="115.9" height="1872"/>
		<rect x="1048.9" class="st1" width="115.9" height="1872"/>
		<rect x="1296.6" class="st1" width="115.9" height="1872"/>
		<rect x="1544.4" class="st1" width="115.9" height="1872"/>
		<rect x="1792.1" class="st1" width="115.9" height="1872"/>
		<rect x="2039.9" class="st1" width="115.9" height="1872"/>
	</g>
	<g>
		<g>
			<rect x="0" y="1382" class="st2" width="2272" height="490"/>
			<rect x="0" y="1382" class="st3" width="2272" height="39.8"/>
			<rect x="0" y="1463" class="st3" width="2272" height="39.8"/>
			<rect x="0" y="1542.4" class="st3" width="2272" height="39.8"/>
			<rect x="0" y="1621.8" class="st3" width="2272" height="39.8"/>
			<rect x="0" y="1701.2" class="st3" width="2272" height="39.8"/>
			<rect x="0" y="1780.6" class="st3" width="2272" height="39.8"/>
		</g>
		<path class="st4" d="M1720,1461.8l-837.4-141.3c39.1,41.1-499.2,172.5-715.3,225.1c-31.9,7.8-38.1,50.5-9.6,67L721.8,1872
			l408.2-164.6L996.3,1811l515.8,5.6l300-184.3c0,0,0,0-280.7-31.6L1720,1461.8z"/>
	</g>
	<g>
		<g>
			<rect x="0" y="1382" class="st2" width="2272" height="490"/>
			<rect x="0" y="1382" class="st3" width="2272" height="39.8"/>
			<rect x="0" y="1463" class="st3" width="2272" height="39.8"/>
			<rect x="0" y="1542.4" class="st3" width="2272" height="39.8"/>
			<rect x="0" y="1621.8" class="st3" width="2272" height="39.8"/>
			<rect x="0" y="1701.2" class="st3" width="2272" height="39.8"/>
			<rect x="0" y="1780.6" class="st3" width="2272" height="39.8"/>
		</g>
		<path class="st4" d="M1720,1461.8l-837.4-141.3c39.1,41.1-499.2,172.5-715.3,225.1c-31.9,7.8-38.1,50.5-9.6,67L721.8,1872
			l408.2-164.6L996.3,1811l515.8,5.6l300-184.3c0,0,0,0-280.7-31.6L1720,1461.8z"/>
	</g>
	<g>
		<g>
			<g>
				<path class="st5" d="M1321.6,1435l-812.9,272.5L217.3,1550c-9-4.9-14.6-14.3-14.6-24.5v0c0-19.6,19.7-33.1,37.9-26l268,103.5
					l816.8-236.2c8.3-2.4,13.9-10.5,13-19.3c-0.7-6.9-5.5-12.7-12-15.2l-284-107.9l-826.1,237.2c-30.8,6.6-37,55.6-37,55.6
					c0,24.1,13,46.3,34,58.1l295.3,166l819.9-286c4.3-1.5,7.3-5.6,7.3-10.2C1335.8,1437.8,1328.6,1432.6,1321.6,1435z"/>
				<path class="st6" d="M1325.5,1366.8c8.3-2.4,13.9-10.5,13-19.3c-0.7-6.9-5.5-12.7-12-15.2l-284-107.9L282,1442.8l257.4,151.3
					L1325.5,1366.8z"/>
				<path class="st7" d="M240.6,1499.5c-18.3-7.1-37.9,6.4-37.9,26v0c0,10.2,5.6,19.7,14.6,24.5l291.3,157.4l819.1-274.8l-2.3-65.8
					L508.6,1603L240.6,1499.5z"/>
				<path class="st8" d="M240.6,1499.5c-18.3-7.1-37.9,6.4-37.9,26v0c0,10.2,5.6,19.7,14.6,24.5l291.3,157.4V1603L240.6,1499.5z"/>
			</g>
			<polygon class="st8" points="508.6,1632.4 1326.4,1392.6 1326,1382 508.6,1617.9 			"/>
			<path class="st9" d="M508.6,1617.9L216,1501.7c-2.9,1.8-5.4,4-7.5,6.7l300.2,123.9V1617.9z"/>
			<polygon class="st8" points="508.6,1675.8 1327.2,1416.8 1326.8,1406.3 508.6,1662.7 			"/>
			<path class="st9" d="M508.6,1662.7L203.1,1521c-0.2,1.5-0.4,3-0.4,4.5v0c0,1.9,0.2,3.8,0.6,5.6l305.4,144.7V1662.7z"/>
		</g>
		<g>
			<g>
				<path class="st10" d="M1418.8,1294.2l-812.9,272.5l-291.3-157.4c-9-4.9-14.6-14.3-14.6-24.5v0c0-19.6,19.7-33.1,37.9-26
					l268,103.5l816.8-236.2c8.3-2.4,13.9-10.5,13-19.3c-0.7-6.9-5.5-12.7-12-15.2l-284-107.9l-810.3,172.7
					c-30.8,6.6-52.8,33.8-52.8,65.2v54.9c0,24.1,13,46.3,34,58.1l295.3,166l819.9-286c4.3-1.5,7.3-5.6,7.3-10.2
					C1433,1297.1,1425.8,1291.9,1418.8,1294.2z"/>
				<path class="st7" d="M337.8,1358.7c-18.3-7.1-37.9,6.4-37.9,26v0c0,10.2,5.6,19.7,14.6,24.5l291.3,157.4l819.1-274.8l-2.3-65.8
					l-816.8,236.2L337.8,1358.7z"/>
				<path class="st8" d="M337.8,1358.7c-18.3-7.1-37.9,6.4-37.9,26v0c0,10.2,5.6,19.7,14.6,24.5l291.3,157.4v-104.5L337.8,1358.7z"
					/>
			</g>
			<polygon class="st8" points="667.2,1562.3 1423.6,1251.8 1423.2,1241.3 667.2,1547.9 			"/>
			<path class="st9" d="M667.2,1547.9l-354-186.9c-2.9,1.8-5.4,4-7.5,6.7l361.5,194.6V1547.9z"/>
		</g>
		<g>
			<g>
				<path class="st10" d="M1418.8,1294.2l-812.9,272.5l-291.3-157.4c-9-4.9-14.6-14.3-14.6-24.5v0c0-19.6,19.7-33.1,37.9-26
					l268,103.5l816.8-236.2c8.3-2.4,13.9-10.5,13-19.3c-0.7-6.9-5.5-12.7-12-15.2l-284-107.9l-810.3,172.7
					c-30.8,6.6-52.8,33.8-52.8,65.2v54.9c0,24.1,13,46.3,34,58.1l295.3,166l819.9-286c4.3-1.5,7.3-5.6,7.3-10.2
					C1433,1297.1,1425.8,1291.9,1418.8,1294.2z"/>
				<path class="st7" d="M337.8,1358.7c-18.3-7.1-37.9,6.4-37.9,26v0c0,10.2,5.6,19.7,14.6,24.5l291.3,157.4l819.1-274.8l-2.3-65.8
					l-816.8,236.2L337.8,1358.7z"/>
				<path class="st8" d="M337.8,1358.7c-18.3-7.1-37.9,6.4-37.9,26v0c0,10.2,5.6,19.7,14.6,24.5l291.3,157.4v-104.5L337.8,1358.7z"
					/>
			</g>
			<polygon class="st8" points="605.8,1491.6 1423.6,1251.8 1423.2,1241.3 605.8,1477.2 			"/>
			<path class="st9" d="M605.8,1477.2L313.2,1361c-2.9,1.8-5.4,4-7.5,6.7l300.2,123.9V1477.2z"/>
			<polygon class="st8" points="605.8,1535.1 1424.4,1276.1 1424,1265.5 605.8,1522 			"/>
			<path class="st9" d="M605.8,1522l-305.6-141.7c-0.2,1.5-0.4,3-0.4,4.5v0c0,1.9,0.2,3.8,0.6,5.6l305.4,144.7V1522z"/>
		</g>
		<g>
			<g>
				<g>
					<path class="st11" d="M1332.2,1095.2c-10.2-4.5-341.6-91.4-341.6-91.4l-775,124.8c-11.8,1.9-22.2,7.5-30,15.6
						c-14.5,14.9-7.3,39.9,12.7,45.4h0l-1,74.9l-20.1-7c-3.4-1.2-7,1.3-7,5l0,0c0,24.3,16.2,45.6,39.6,52l354.4,98
						c15.7,4.3,32.2,4.2,47.8-0.2l684.3-196.1c21.9-6.3,37.5-25.7,39-48.5C1337.1,1136.7,1338.2,1097.8,1332.2,1095.2z"/>
				</g>
				<path class="st12" d="M1332.2,1095.2l-772.1,180.2c13.6,11.9,21.5,29.7,20.2,48.7v0c-2.5,38-39.7,63.8-76.2,52.9
					c-100.1-30-276.3-83-332.3-101.2c-0.2-1-0.5-1.9-0.6-2.9c3.9,19.8,18.6,36.1,38.6,41.6l354.4,98c15.7,4.3,32.2,4.2,47.8-0.2
					l684.3-196.1c21.9-6.3,37.5-25.7,39-48.5C1337.1,1136.7,1338.2,1097.8,1332.2,1095.2z"/>
				<polygon class="st13" points="605.8,1310.5 605.8,1377.7 1302.2,1187.1 1302.2,1133.5 				"/>
				<path class="st14" d="M580.3,1324L580.3,1324c1.8-27.6-15.6-52.8-42.1-60.7l-360.3-98.7c0.7,11.1,8.1,21.7,20.3,25l-1,74.9
					l-20.1-7c-3.4-1.2-7,1.3-7,5l0,0c0,4.6,0.6,9,1.7,13.3c56.1,18.2,232.2,71.2,332.3,101.2C540.6,1387.9,577.8,1362,580.3,1324z"
					/>
				<path class="st7" d="M537.2,1286.1c-77.7-22.5-273.6-79.5-339-96.5l-1,74.9l319.3,92.8c23.7,6.9,47.5-10.9,47.5-35.6v0
					C564,1305.2,553,1290.6,537.2,1286.1z"/>
				<polygon class="st15" points="197.9,1209.7 545.8,1308.8 545.8,1314.6 197.7,1215.8 				"/>
				<polygon class="st15" points="197.9,1224.4 545.8,1323.5 545.8,1329.3 197.7,1230.6 				"/>
				<polygon class="st15" points="197.9,1239.2 545.8,1338.3 545.8,1344.1 197.7,1245.3 				"/>
			</g>
			<g>
				<g>
					<path class="st11" d="M1332.2,947.2c-10.2-4.5-341.6-91.4-341.6-91.4l-775,124.8c-11.8,1.9-22.2,7.5-30,15.6
						c-14.5,14.9-7.3,39.9,12.7,45.4h0l-1,74.9l-20.1-7c-3.4-1.2-7,1.3-7,5l0,0c0,24.3,16.2,45.6,39.6,52l354.4,98
						c15.7,4.3,32.2,4.2,47.8-0.2l684.3-196.1c21.9-6.3,37.5-25.7,39-48.5C1337.1,988.7,1338.2,949.9,1332.2,947.2z"/>
				</g>
				<path class="st12" d="M1332.2,947.2l-772.1,180.2c13.6,11.9,21.5,29.7,20.2,48.7v0c-2.5,38-39.7,63.8-76.2,52.9
					c-100.1-30-276.3-83-332.3-101.2c-0.2-1-0.5-1.9-0.6-2.9c3.9,19.8,18.6,36.1,38.6,41.6l354.4,98c15.7,4.3,32.2,4.2,47.8-0.2
					l684.3-196.1c21.9-6.3,37.5-25.7,39-48.5C1337.1,988.7,1338.2,949.9,1332.2,947.2z"/>
				<polygon class="st13" points="605.8,1162.6 605.8,1229.8 1302.2,1039.2 1302.2,985.5 				"/>
				<path class="st14" d="M580.3,1176.1L580.3,1176.1c1.8-27.6-15.6-52.8-42.1-60.7l-360.3-98.7c0.7,11.1,8.1,21.7,20.3,25l-1,74.9
					l-20.1-7c-3.4-1.2-7,1.3-7,5l0,0c0,4.6,0.6,9,1.7,13.3C227.8,1146,404,1199,504.1,1229C540.6,1239.9,577.8,1214.1,580.3,1176.1z
					"/>
				<path class="st7" d="M537.2,1138.1c-77.7-22.5-273.6-79.5-339-96.5l-1,74.9l319.3,92.8c23.7,6.9,47.5-10.9,47.5-35.6v0
					C564,1157.3,553,1142.7,537.2,1138.1z"/>
				<polygon class="st15" points="197.9,1061.8 545.8,1160.9 545.8,1166.7 197.7,1067.9 				"/>
				<polygon class="st15" points="197.9,1076.5 545.8,1175.6 545.8,1181.4 197.7,1082.6 				"/>
				<polygon class="st15" points="197.9,1091.3 545.8,1190.4 545.8,1196.2 197.7,1097.4 				"/>
			</g>
			<g>
				<path class="st14" d="M1130,947.2c0,0-85.8-50.3-137.9-91c-1-0.3-1.6-0.4-1.6-0.4l-602.7,97.1l141.8,128.2L1130,947.2z"/>
				<g>
					<path class="st16" d="M440.8,830.4v112.9c0,0,320.2,137.8,507.3-6.9V803.6C948.1,803.6,518.4,763.3,440.8,830.4z"/>
					<path class="st17" d="M948.1,914.2V803.6c0,0-429.7-40.3-507.3,26.9v83.7C534.9,938.6,734.3,974.4,948.1,914.2z"/>
					<polygon class="st18" points="233.1,671.8 362.1,943.3 1224.9,823.2 1224.9,795.8 977.3,590 233.1,629.3 					"/>
					<polygon class="st19" points="371.2,912.7 370.8,911.8 362.1,943.3 1224.9,823.2 1224.9,795.8 					"/>
					<polygon class="st16" points="233.1,629.3 371.2,912.7 1224.9,795.8 977.3,554.6 					"/>
					<g>
						<g>
							<g>
								<path class="st20" d="M800.6,1070.3c-0.4,8.5-0.6,17.1-0.2,25.6c0.5,8.6-0.2,17.5,0.8,26c0.4,3.1,4.5,3.1,4.8,0
									c1-8.5-0.2-17.6-0.9-26c-0.7-8.5-0.9-17.1-1.2-25.6C803.8,1068.2,800.7,1068.2,800.6,1070.3L800.6,1070.3z"/>
							</g>
							<g>
								<path class="st20" d="M806.8,1072.3c-2.4,14.6,0.3,29.9,0.6,44.6c0,3,4.6,3,4.6,0c0-14.7-3.8-29.5-2.2-44.2
									C810,1071,807.1,1070.6,806.8,1072.3L806.8,1072.3z"/>
							</g>
							<g>
								<path class="st20" d="M811.8,1077.3c-0.1,8,0.3,16.1,0.8,24c0.2,4,0.6,8.1,0.9,12.1c0.1,2.4,0,4.6,1.2,6.8
									c1.8,3.4,6.8-1.2,3.3-3.3c-0.1,0-0.1-0.1-0.2-0.1c-0.9-0.5-1.9-0.3-2.6,0.3c-0.1,0-0.1,0.1-0.2,0.1c1.3,0.4,2.7,0.7,4,1.1
									c-1.9-6.1-1.5-13.5-2.1-19.9c-0.6-7.1-1.4-14.2-1.9-21.2C814.9,1075.2,811.8,1075.2,811.8,1077.3L811.8,1077.3z"/>
							</g>
							<g>
								<path class="st20" d="M817.6,1082.9c0.1,12.1,1.3,24.1,1.6,36.2c0.1,3.2,5,3.2,5,0c0-12-2.5-24.1-3-36.2
									C821.2,1080.6,817.6,1080.5,817.6,1082.9L817.6,1082.9z"/>
							</g>
							<g>
								<path class="st20" d="M823.8,1081.5c0.4,13.7,0.4,27.8,2.6,41.4c0.5,3.1,5.6,1.8,4.8-1.3c-0.1-0.4-0.2-0.7-0.3-1.1
									c-0.5-2.1-3.7-2.1-4.3,0c-0.1,0.4-0.2,0.7-0.3,1.1c1.6,0.2,3.3,0.4,4.9,0.7c0.3-3-0.7-6.1-1-9.1c-0.3-3.5-0.6-7.1-1-10.6
									c-0.7-7-1.5-14-2.1-21C827.1,1079.3,823.7,1079.2,823.8,1081.5L823.8,1081.5z"/>
							</g>
							<g>
								<path class="st20" d="M832.2,1082.4c-0.3,6.2,0.7,12.7,0.8,19c0.1,6.2,0.1,12.4,0.7,18.6c1.4-0.6,2.9-1.2,4.3-1.8
									c-0.1-0.1-0.1-0.1-0.2-0.2c-0.9-0.8-2.4-0.9-3.2,0c-0.1,0.1-0.1,0.1-0.2,0.2c-3.1,3.4,4,6.5,4.3,1.8c0.3-6-0.7-12.6-1-18.6
									c-0.4-6.3-1.9-12.7-2.1-19C835.5,1080.2,832.3,1080.2,832.2,1082.4L832.2,1082.4z"/>
							</g>
							<g>
								<path class="st20" d="M841.5,1090.7c0.8,6.8,1.6,13.6,2.1,20.5c0.3,3.8-0.8,10.4,2.5,13.2c0.6,0.5,1.9,0.6,2.3-0.3
									c0.6-1.4,0.5-2.1,0.4-3.6c-0.4-3.7-0.8-7.5-1.2-11.2c-0.8-6.3-1.8-12.7-2.7-19C844.5,1088.4,841.3,1088.9,841.5,1090.7
									L841.5,1090.7z"/>
							</g>
							<g>
								<path class="st20" d="M850.7,1087.1c0.9,7.2,1.7,14.4,2.3,21.6c0.4,5.5-0.2,12.2,2.1,17.3c0.7,1.6,3.1,1,3.5-0.5
									c0.8-2.7,0-5.6-0.3-8.4c-0.3-3.5-0.7-6.9-1.1-10.4c-0.8-6.8-1.8-13.4-2.8-20.1C854.1,1084.5,850.5,1085,850.7,1087.1
									L850.7,1087.1z"/>
							</g>
							<g>
								<path class="st20" d="M858.7,1085.4c0.9,6.5,1.6,13.2,2,19.7c0.3,4.8-0.8,10.6,1.3,15.1c0.8,1.7,3.5,1.2,3.9-0.5
									c1.1-4.9,0-10.9-0.6-15.9c-0.8-6.3-2.2-12.6-3.1-18.9C861.8,1083,858.4,1083.5,858.7,1085.4L858.7,1085.4z"/>
							</g>
							<g>
								<path class="st20" d="M866.3,1081.2c0.8,6,1.2,12.2,1.5,18.3c0.3,5.8-0.1,12,0.9,17.7c0.4,2.2,4.2,2.3,4.6,0
									c1-6-0.2-12.6-0.9-18.6c-0.7-6-1.7-11.9-2.8-17.8C869.2,1079,866.1,1079.4,866.3,1081.2L866.3,1081.2z"/>
							</g>
							<g>
								<path class="st20" d="M872.7,1082c1.3,5.8,1.9,11.8,2.2,17.7c0.3,5-0.4,10.4,0.8,15.3c0.5,1.9,3.5,2,3.9,0
									c1.4-5.4,0.2-11.7-0.4-17.1c-0.7-5.7-1.8-11.2-3.2-16.8C875.5,1078.8,872.2,1079.8,872.7,1082L872.7,1082z"/>
							</g>
							<g>
								<path class="st20" d="M880.6,1083.1c1.6,11.8,1.2,24,3.9,35.6c0.6,2.5,4.6,2,4.5-0.6c-0.6-11.8-2.9-24.3-5.1-35.9
									C883.3,1080.1,880.3,1081,880.6,1083.1L880.6,1083.1z"/>
							</g>
						</g>
						<g>
							<ellipse class="st18" cx="721.8" cy="713.6" rx="64.7" ry="31.8"/>
							<path class="st20" d="M832.6,1021.6c0,0-35.8,12.6-34.1,65.4c0,0,57.8,18.2,87.5,0C886,1087,880.8,1010.6,832.6,1021.6z"/>
							<path class="st21" d="M851,1021.8c1.4,2.6,2.8,5.3,4.2,8c7,13.9,14.1,27.9,18.8,42.8c1.9,5.9,3.4,12,4.4,18.1
								c2.7-1,5.3-2.2,7.6-3.7C886,1087,882.2,1031.2,851,1021.8z"/>
							<path class="st18" d="M728.7,681.6l-13.8,10l117.7,162.1v167.9c0,4.7,3.8,8.5,8.5,8.5s8.5-3.8,8.5-8.5V848.1L728.7,681.6z"/>
							<g>
								<ellipse class="st20" cx="721.8" cy="700.1" rx="27.5" ry="13.5"/>
							</g>
						</g>
						<path class="st18" d="M841.5,988c0,0-19,9.9-20.6,46.2c0,0,29.7,5.8,44.6,0C865.4,1034.2,863.7,1004.5,841.5,988z"/>
					</g>
				</g>
				<path class="st14" d="M1332.2,947.2"/>
			</g>
		</g>
	</g>
	<path class="st4" d="M1165.7,1842.2c0,0,831.5-356.7,932.8-379.2l-97.6-61.1c0,0-930.9,387.4-936.6,398.6
		S1122.6,1832.8,1165.7,1842.2z"/>
	<g>
		<path class="st11" d="M1549.4,1431.1c0,0,51-125.6,225-175.7l-30,38.4c0,0,23-14.8,67.6,8.2c0,0-216.6,89.4-236.1,135.4
			L1549.4,1431.1z"/>
		<path class="st11" d="M1569,1413.2c0,0-96.7-51.3-230.5,7.9l38.5,8.3c0,0-22,2.8-37.6,40.1c0,0,180.5-57,216.4-38.6L1569,1413.2z"
			/>
		<path class="st22" d="M1536.7,1450.4c0,0-27.5-40.7,7-50.1c30.2-8.3,44.4-13,47.3,5.8c0.4,2.7,0.6,5.8,0.6,9.5
			C1591.4,1445.1,1581.6,1454.4,1536.7,1450.4z"/>
		<path class="st23" d="M2040.8,1342.2c0,0-33.4-93.8-118.5-40.8l-782.7,282.5c-45.2,16.3-79.6,53.9-90.9,100.6
			c-11,45.1-4.1,97.9,67.9,127.8c143.4,59.7,454.1-214.4,612.5-271.3c158.4-56.9,340.6-114.7,340.6-114.7l12-84.1H2040.8z"/>
		<path class="st24" d="M1545.4,1438.4c15,7.7,28.1,19.3,38.5,32.7c18.2,23.4,29,52.1,32.2,81.6c1.7,15.3,1.3,30.7-0.7,45.9
			c1.3-0.8,2.6-1.6,3.9-2.3C1654.9,1469.3,1559.5,1441.8,1545.4,1438.4z"/>
		<path class="st25" d="M1054.4,1711.9c0,0,34.4-100.2,85.9-90.1c51.4,10.2,108,115.2,43.4,145.9c-64.6,30.7-136.9-44.2-77.5-89.1
			C1106.1,1678.7,1071.7,1681.8,1054.4,1711.9z"/>
		<path class="st26" d="M1183.2,1650.6l-77.2,28.1c-59.3,44.9,12.9,119.8,77.5,89.1C1229.5,1746,1214.3,1686.7,1183.2,1650.6z"/>
		<path class="st25" d="M1106.1,1707.4c0,0,42.9-18.7,42.2-18.7c-0.7,0,0,32.4,0,32.4l-25.2,20.3
			C1123.1,1741.4,1088.4,1736.3,1106.1,1707.4z"/>
		<path class="st23" d="M1122.9,1734.8c0,0-32.3-6-16.8-27.4c0,0-26.4,29.4,18.8,39.5l84.8-47c-4.6-17.6-14.3-35.2-26.4-49.4
			l-77.2,28.1C1106.1,1678.7,1154.1,1690.6,1122.9,1734.8z"/>
		<path class="st25" d="M1054.4,1711.9c0,0,41.7,121.6,139.4,88.6c97.7-33,62.8-87.8,62.8-87.8s360.2-179.4,426.5-197.3
			c66.3-17.9,357.6-173.2,357.6-173.2l-5.3-11.6l-309.3,156l-53,20.6l-424.3,194.2c0,0,19.8,53.6-29.7,73.5
			C1169.7,1794.9,1120.6,1815,1054.4,1711.9z"/>
		<path class="st11" d="M1543.7,1438c0,0,114,21.3,75.6,158.2c0,0,52.9-5.7,58.4-43.3c5.4-37.6-1.7-117.6-100.2-137.4
			C1577.5,1415.6,1561.6,1413.7,1543.7,1438z"/>
		<path class="st22" d="M1644.2,1529.8c-1.6,0.3-3.4,0.4-4.6-0.7c-1.3-1.1-1.4-3-1.5-4.6c-1.1-26-13.1-51.4-32.5-68.8
			c-15.5-13.9-35.6-22.6-56.3-24.7c-1.9,2.1-3.8,4.4-5.7,7c0,0,114,21.3,75.6,158.2c0,0,52.9-5.7,58.4-43.3
			c1.7-11.6,2.2-27.3-0.9-44C1669.1,1519.8,1657.3,1527.7,1644.2,1529.8z"/>
		<path class="st4" d="M1212.5,1806.2"/>
	</g>
</g>
</svg>
